<svg xmlns="http://www.w3.org/2000/svg" width="260.2" height="213.4" style=""><rect id="backgroundrect" width="100%" height="100%" x="0" y="0" fill="none" stroke="none"/><style>.st0{fill:#eb524f}</style><title>udemy</title><g class="currentLayer" style=""><title>Layer 1</title><path class="st0 selected" d="M14.35927310855368,0.7040852748119022 c1.7297090282037975,0.6163305343331945 2.26651527833601,2.208517748027278 2.26651527833601,4.023268765786126 c-0.014911284725894806,1.4381045801107857 -0.16402413198484295,2.8762091602215714 -0.4622498265027388,4.280073155091624 c-0.641185243213477,3.201494720008535 -1.4314833336859012,6.368748854776337 -2.0875798616252723,9.553123282164504 c-0.536806250132213,2.619404770916074 -1.0288786460867414,5.273050127072881 -1.0437899308126362,7.978056361090787 c0.014911284725894806,0.7361725826757592 0.11929027780715853,1.4723451653515185 0.2982256945178963,2.1742771627865447 c0.34295954869558065,1.4038639948700524 1.3718381947823217,1.5065857505922513 2.1472250005288522,0.650571119573927 c0.49207239595452873,-0.5478493638517279 0.9394109377313724,-1.1299393129441886 1.3420156253305322,-1.7633901398977492 c1.9384670143663243,-2.9618106233234043 3.6532647578442266,-6.111944465470839 5.114570660981917,-9.416160941201571 c1.4165720489600062,-3.1672541347678016 4.6523208344791795,-10.323536450080995 4.846167535915811,-10.751543765590158 c1.0139673613608464,-2.140036577545812 3.8172888898290687,-1.7805104325181156 4.6672321192050745,0.30816526716659715 c0.47716111122863375,1.1299393129441886 0.7455642362947403,2.379720674230943 0.7902980904724246,3.629502035517697 c0.07455642362947405,2.7050062340179064 0.2982256945178963,10.25505527959953 0.40260468759915996,11.33363371468262 c0.19384670143663255,2.0886756996847122 1.3569269100564272,2.756367111879006 2.9077005215494864,1.5921872136940847 c0.9394109377313724,-0.7019319974350264 1.7893541671073763,-1.5921872136940847 2.639297396483381,-2.431081552092042 c0.7902980904724246,-0.8046537531572253 1.2078140627974792,-0.7190522900553928 1.5955074656707438,0.41088702288879597 c0.34295954869558065,0.9929769719812563 0.19384670143663255,1.9859539439625133 -0.08946770835536888,2.927570038082671 c-0.9543222224572673,3.1843744273881684 -3.026990799356645,4.8792833968044516 -5.785578473647183,5.564095101619111 c-0.8797657988277936,0.2225638040647645 -1.7893541671073763,0.2396840966851312 -2.6840312506610644,0.06848117048146608 c-1.9832008685440086,-0.37664643764806327 -3.250660070245067,-1.694908969416283 -4.011135591265702,-3.732223791239896 c-0.7306529515688458,-1.9688336513421474 -0.9543222224572673,-7.5671693382019924 -1.1183463544421102,-8.286221628257383 c-0.2684031250661065,0.650571119573927 -3.4445067716816995,8.16637957991482 -5.114570660981917,11.025468447516024 c-1.0437899308126362,1.8318713103792148 -2.3112491325136943,3.4925396945547647 -3.7725550356513855,4.913523982045184 c-1.4463946184117957,1.386743702249686 -3.0866359382602244,2.2427583332680108 -5.010191667900654,2.2941192111291104 c-2.3261604172395893,0.06848117048146608 -4.011135591265702,-1.1470596055645552 -5.174215799885497,-3.406938231452932 c-0.7455642362947403,-1.455224872731152 -1.058701215538531,-3.081652671665969 -1.1630802086197944,-4.759441348461886 c-0.14911284725894808,-2.34548008899021 0.1789354167107378,-4.63959930011932 0.6262739584875819,-6.933718511248431 c0.14911284725894808,-0.7361725826757592 0.25349184034021166,-1.4894654579718851 0.4175159723250547,-2.431081552092042 c-0.641185243213477,0.37664643764806327 -1.058701215538531,0.7190522900553928 -1.5358623267671643,0.9073755088794242 c-0.566628819584003,0.2225638040647645 -1.1779914933456894,0.4451276081295291 -1.7744428823814817,0.4280073155091625 C1.4759231053805735,20.786188518501802 1.1627861261367798,18.09830257710425 1.1627861261367798,17.653174968974724 c0.7157416668429507,-0.6334508269535607 1.4762171878635855,-1.215540776046021 2.132313715802957,-1.9003524808606809 c3.1313697924379085,-3.252855597869634 5.487352779129287,-7.156282315313194 7.187239237881295,-11.57331781136775 C11.048967899405028,2.72427980401514 11.74979828152209,1.4744984427283896 13.00234619849725,0.7040852748119022 c0.4175159723250547,-0.20544351144439804 0.7902980904724246,-0.2225638040647645 1.3569269100564272,0 z" id="svg_1"/></g></svg>